<svg width="16" height="17" viewBox="0 0 16 17" fill="none" xmlns="http://www.w3.org/2000/svg">
<path d="M2.68221 4.33424L2.68221 15.3442C2.68221 15.8942 3.13221 16.3442 3.68221 16.3442C4.23221 16.3442 4.68221 15.8942 4.68221 15.3442L4.68221 4.33424H6.47221C6.92221 4.33424 7.14221 3.79424 6.82221 3.48424L4.03221 0.704239C3.83221 0.514239 3.52221 0.514239 3.32221 0.704239L0.532207 3.48424C0.212207 3.79424 0.442207 4.33424 0.882207 4.33424H2.68221Z" fill="#3284FF"/>
<path d="M13.3295 12.572L13.3295 1.56201C13.3295 1.01201 12.8795 0.562012 12.3295 0.562012C11.7795 0.562012 11.3295 1.01201 11.3295 1.56201L11.3295 12.572L9.53951 12.572C9.08951 12.572 8.86951 13.112 9.18951 13.422L11.9795 16.202C12.1795 16.392 12.4895 16.392 12.6895 16.202L15.4795 13.422C15.7995 13.112 15.5695 12.572 15.1295 12.572H13.3295Z" fill="#3284FF"/>
</svg>
