<svg width="98" height="56" viewBox="0 0 98 56" fill="none" xmlns="http://www.w3.org/2000/svg">
<path d="M1.48878 51.2349H2.55378V40.1049H1.48878V51.2349ZM9.1921 51.3099C11.5021 51.3099 13.1971 49.6299 13.1971 47.2899C13.1971 44.9499 11.5021 43.2849 9.1921 43.2849C6.8821 43.2849 5.1721 44.9499 5.1721 47.2899C5.1721 49.6299 6.8821 51.3099 9.1921 51.3099ZM9.1921 50.3649C7.5121 50.3649 6.2521 49.1349 6.2521 47.2899C6.2521 45.4449 7.5121 44.2149 9.1921 44.2149C10.8721 44.2149 12.1171 45.4449 12.1171 47.2899C12.1171 49.1349 10.8721 50.3649 9.1921 50.3649ZM22.1064 43.3449V44.8599C21.4464 43.8249 20.3064 43.2849 18.9864 43.2849C16.7364 43.2849 15.0264 44.8299 15.0264 47.0949C15.0264 49.3599 16.7364 50.9349 18.9864 50.9349C20.2764 50.9349 21.4014 50.4099 22.0614 49.4049V50.4099C22.0614 52.3599 21.1464 53.2749 19.1514 53.2749C17.9364 53.2749 16.7964 52.8699 16.0464 52.1949L15.5064 53.0049C16.3314 53.7849 17.7414 54.2199 19.1814 54.2199C21.7914 54.2199 23.1264 52.9899 23.1264 50.2749V43.3449H22.1064ZM19.0914 49.9899C17.3514 49.9899 16.1064 48.8049 16.1064 47.0949C16.1064 45.3849 17.3514 44.2149 19.0914 44.2149C20.8314 44.2149 22.0914 45.3849 22.0914 47.0949C22.0914 48.8049 20.8314 49.9899 19.0914 49.9899ZM27.0946 41.6199C27.5446 41.6199 27.8746 41.2749 27.8746 40.8399C27.8746 40.4349 27.5296 40.1049 27.0946 40.1049C26.6596 40.1049 26.3146 40.4499 26.3146 40.8549C26.3146 41.2749 26.6596 41.6199 27.0946 41.6199ZM26.5546 51.2349H27.6196V43.3449H26.5546V51.2349ZM33.1479 51.3099C35.2029 51.3099 36.4029 50.4249 36.4029 49.0599C36.4029 46.0299 31.2879 47.6349 31.2879 45.5049C31.2879 44.7549 31.9179 44.1999 33.3429 44.1999C34.1529 44.1999 34.9779 44.3949 35.6679 44.8749L36.1329 44.0199C35.4729 43.5699 34.3629 43.2849 33.3429 43.2849C31.3329 43.2849 30.2229 44.2449 30.2229 45.5349C30.2229 48.6549 35.3379 47.0349 35.3379 49.0899C35.3379 49.8699 34.7229 50.3799 33.2229 50.3799C32.1129 50.3799 31.0479 49.9899 30.4179 49.4949L29.9379 50.3349C30.5829 50.8899 31.8429 51.3099 33.1479 51.3099ZM42.6018 49.9899C42.3018 50.2599 41.8668 50.3949 41.4318 50.3949C40.5468 50.3949 40.0668 49.8849 40.0668 48.9549V44.2449H42.4668V43.3449H40.0668V41.6199H39.0018V43.3449H37.5918V44.2449H39.0018V49.0149C39.0018 50.4699 39.8268 51.3099 41.3118 51.3099C41.9268 51.3099 42.5568 51.1299 42.9768 50.7549L42.6018 49.9899ZM45.9055 41.6199C46.3555 41.6199 46.6855 41.2749 46.6855 40.8399C46.6855 40.4349 46.3405 40.1049 45.9055 40.1049C45.4705 40.1049 45.1255 40.4499 45.1255 40.8549C45.1255 41.2749 45.4705 41.6199 45.9055 41.6199ZM45.3655 51.2349H46.4305V43.3449H45.3655V51.2349ZM53.1139 51.3099C54.4489 51.3099 55.5739 50.7699 56.2039 49.7499L55.4089 49.2099C54.8689 50.0049 54.0289 50.3649 53.1139 50.3649C51.3889 50.3649 50.1289 49.1499 50.1289 47.2899C50.1289 45.4449 51.3889 44.2149 53.1139 44.2149C54.0289 44.2149 54.8689 44.5899 55.4089 45.3849L56.2039 44.8449C55.5739 43.8099 54.4489 43.2849 53.1139 43.2849C50.7589 43.2849 49.0489 44.9349 49.0489 47.2899C49.0489 49.6449 50.7589 51.3099 53.1139 51.3099ZM60.861 51.3099C62.916 51.3099 64.116 50.4249 64.116 49.0599C64.116 46.0299 59.001 47.6349 59.001 45.5049C59.001 44.7549 59.631 44.1999 61.056 44.1999C61.866 44.1999 62.691 44.3949 63.381 44.8749L63.846 44.0199C63.186 43.5699 62.076 43.2849 61.056 43.2849C59.046 43.2849 57.936 44.2449 57.936 45.5349C57.936 48.6549 63.051 47.0349 63.051 49.0899C63.051 49.8699 62.436 50.3799 60.936 50.3799C59.826 50.3799 58.761 49.9899 58.131 49.4949L57.651 50.3349C58.296 50.8899 59.556 51.3099 60.861 51.3099Z" fill="#748ABD"/>
<path d="M31.9295 34.7163L31.8583 9.80219H24.9535L17.0522 23.0779L8.93728 9.80219H2.03251V34.7163H9.6847V23.7541L15.0946 32.474H18.7962L24.2061 23.3626L24.2773 34.7163H31.9295ZM42.4682 34.7163H50.8678V16.3154H58.1641V9.80219H35.1719V16.3154H42.4682V34.7163Z" fill="#748ABD"/>
<path d="M87.3718 34.7163H97.0883L86.6244 20.7644L96.59 9.80219H87.443L79.2569 18.8425V9.80219H70.9997V34.7163H79.2569V28.559L81.1433 26.4591L87.3718 34.7163Z" fill="#748ABD"/>
<path d="M59.8518 5.46971C59.7163 5.52623 59.6279 5.65813 59.6279 5.8045V9.77482L50.5699 9.77482C50.3699 9.77482 50.2075 9.93715 50.2075 10.1372V15.9343C50.2075 16.1343 50.3699 16.2967 50.5699 16.2967H59.6279V20.2822C59.6279 20.4286 59.7164 20.5605 59.8511 20.617C59.9866 20.6728 60.1424 20.6424 60.2461 20.5387L67.4983 13.3104C67.5664 13.2423 67.6049 13.1502 67.6049 13.0539C67.6049 12.9575 67.5664 12.8654 67.499 12.7973L60.2468 5.54797C60.1431 5.44434 59.9873 5.41319 59.8518 5.46971Z" fill="#748ABD"/>
<line x1="34.7594" y1="13.0415" x2="67.6049" y2="13.0415" stroke="#163B77" stroke-width="0.5"/>
</svg>
